<?xml version="1.0" encoding="UTF-8" standalone="no"?>
<!-- Created with Inkscape (http://www.inkscape.org/) -->
<svg
   xmlns:svg="http://www.w3.org/2000/svg"
   xmlns="http://www.w3.org/2000/svg"
   version="1.0"
   width="601"
   height="601"
   id="svg2">
  <defs
     id="defs4" />
  <g
     transform="translate(-2.3571428,-444.29075)"
     id="layer1">
    <g
       id="g3207">
      <rect
         width="600.00165"
         height="600.00165"
         rx="37.437706"
         ry="37.437706"
         x="2.8563123"
         y="444.78992"
         id="rect2383"
         style="opacity:1;fill:#ffffff;fill-opacity:1;fill-rule:nonzero;stroke:#999999;stroke-width:0.99833888;stroke-linecap:butt;stroke-linejoin:round;stroke-miterlimit:4;stroke-dasharray:none;stroke-opacity:1" />
      <rect
         width="595"
         height="595"
         rx="37.438"
         ry="37.437706"
         x="5.3841429"
         y="447.26376"
         id="rect3165"
         style="opacity:1;fill:#000000;fill-opacity:1;fill-rule:nonzero;stroke:none;stroke-width:1;stroke-linecap:butt;stroke-linejoin:round;stroke-miterlimit:4;stroke-dasharray:none;stroke-opacity:1" />
      <path
         d="M 496.34146,294.90244 C 496.34146,407.37995 402.97645,498.56098 287.80487,498.56098 C 172.63329,498.56098 79.26828,407.37995 79.26828,294.90244 C 79.26828,182.42493 172.63329,91.2439 287.80487,91.2439 C 402.97645,91.2439 496.34146,182.42493 496.34146,294.90244 L 496.34146,294.90244 z"
         transform="matrix(1.2737573,0,0,1.3042665,-64.236408,360.65937)"
         id="path3205"
         style="opacity:1;fill:#ffffff;fill-opacity:1;fill-rule:nonzero;stroke:none;stroke-width:1;stroke-linecap:butt;stroke-linejoin:round;stroke-miterlimit:4;stroke-dasharray:none;stroke-opacity:1" />
    </g>
    <path
       d="M 185.20699,817.41946 L 185.20699,889.60626 L 148.45399,889.60626 L 148.45399,817.41946 L 57.244279,817.41946 L 57.244279,778.9383 L 145.43302,599.97519 L 185.20699,599.97519 L 185.20699,782.82995 L 200.33825,782.82995 L 200.33825,817.41946 L 185.20699,817.41946 z M 148.45399,670.01169 L 93.997281,782.82995 L 148.45399,782.82995 L 148.45399,670.01169 z M 369.30049,744.36198 C 369.01011,752.42685 368.79244,761.72063 368.64749,772.24335 C 368.50222,782.7663 367.92616,793.57496 366.91933,804.66936 C 365.91218,815.76393 364.18403,826.64075 361.73486,837.29985 C 359.28539,847.95906 355.61141,857.4683 350.71292,865.82762 C 345.81414,874.18699 339.47318,880.88854 331.69001,885.93228 C 323.9066,890.97603 314.10932,893.49791 302.29816,893.49791 C 290.19659,893.49791 280.11129,890.97603 272.04223,885.93228 C 263.97305,880.88854 257.41662,874.18699 252.37291,865.82762 C 247.32912,857.4683 243.51003,847.95906 240.91563,837.29985 C 238.32117,826.64075 236.51826,815.76393 235.5069,804.66936 C 234.49549,793.57496 233.98979,782.7663 233.98982,772.24335 C 233.98979,761.72063 233.98979,752.42685 233.98982,744.36198 C 233.98979,735.71696 234.1349,726.0626 234.42515,715.39888 C 234.71535,704.7355 235.50907,693.85648 236.80631,682.76179 C 238.1035,671.66751 240.12188,660.86105 242.86146,650.34237 C 245.60097,639.82417 249.49041,630.45784 254.52981,622.24334 C 259.56912,614.02938 265.98044,607.40039 273.76379,602.35635 C 281.54702,597.31289 291.05847,594.79102 302.29816,594.79072 C 314.10932,594.79102 323.97915,597.31289 331.90768,602.35635 C 339.83596,607.40039 346.24948,614.02938 351.14826,622.24334 C 356.04675,630.45784 359.79109,639.82417 362.38127,650.34237 C 364.97115,660.86105 366.77186,671.66751 367.78341,682.76179 C 368.79464,693.85648 369.30033,704.80806 369.30049,715.61655 C 369.30033,726.42538 369.30033,736.00718 369.30049,744.36198 L 369.30049,744.36198 z M 330.39719,744.36198 C 330.39707,740.90582 330.46962,735.79171 330.61486,729.01965 C 330.75985,722.24791 330.68729,714.75484 330.39719,706.54043 C 330.10684,698.32638 329.52859,689.89668 328.66244,681.2513 C 327.79604,672.60634 326.35591,664.68013 324.34205,657.47266 C 322.32795,650.26566 319.51805,644.35783 315.91234,639.74917 C 312.30641,635.14101 307.76836,632.69169 302.29816,632.40121 C 296.81898,632.69169 292.20617,635.14101 288.45972,639.74917 C 284.71311,644.35783 281.68774,650.26566 279.3836,657.47266 C 277.07932,664.68013 275.35117,672.60634 274.19913,681.2513 C 273.04696,689.89668 272.3258,698.32638 272.03564,706.54043 C 271.74535,714.75484 271.60024,722.24791 271.6003,729.01965 C 271.60024,735.79171 271.60024,740.90582 271.6003,744.36198 C 271.60024,747.81844 271.60024,752.93255 271.6003,759.70432 C 271.60024,766.47635 271.74535,773.96942 272.03564,782.18354 C 272.3258,790.39788 273.04696,798.90014 274.19913,807.69034 C 275.35117,816.4807 277.07932,824.40691 279.3836,831.46898 C 281.68774,838.53116 284.64055,844.36643 288.24205,848.9748 C 291.84339,853.58325 296.52876,855.88746 302.29816,855.88743 C 307.76836,855.88746 312.23386,853.65361 315.69467,849.18587 C 319.15527,844.71822 321.89481,838.88295 323.9133,831.68005 C 325.93157,824.47726 327.44426,816.55326 328.45136,807.90801 C 329.45824,799.26292 330.10684,790.83322 330.39719,782.61888 C 330.68729,774.40476 330.75985,766.83913 330.61486,759.92199 C 330.46962,753.0051 330.39707,747.81844 330.39719,744.36198 L 330.39719,744.36198 z M 519.70153,817.41946 L 519.70153,889.60626 L 482.94853,889.60626 L 482.94853,817.41946 L 391.73882,817.41946 L 391.73882,778.9383 L 479.92755,599.97519 L 519.70153,599.97519 L 519.70153,782.82995 L 534.83279,782.82995 L 534.83279,817.41946 L 519.70153,817.41946 z M 482.94853,670.01169 L 428.49182,782.82995 L 482.94853,782.82995 L 482.94853,670.01169 z"
       id="text3212"
       style="font-size:432.27651978px;font-style:normal;font-variant:normal;font-weight:normal;font-stretch:normal;text-align:center;line-height:100%;writing-mode:lr-tb;text-anchor:middle;fill:#000000;fill-opacity:1;stroke:none;stroke-width:1px;stroke-linecap:butt;stroke-linejoin:miter;stroke-opacity:1;font-family:Roadgeek 2005 Series D;-inkscape-font-specification:Roadgeek 2005 Series D" />
  </g>
</svg>
